<?xml version="1.0" standalone="no"?>
<!DOCTYPE svg PUBLIC "-//W3C//DTD SVG 20010904//EN"
 "http://www.w3.org/TR/2001/REC-SVG-20010904/DTD/svg10.dtd">
<svg version="1.0" xmlns="http://www.w3.org/2000/svg"
 width="459.000000pt" height="459.000000pt" viewBox="0 0 459.000000 459.000000"
 preserveAspectRatio="xMidYMid meet">
<metadata>
Created by potrace 1.11, written by Peter Selinger 2001-2013
</metadata>
<g transform="translate(0.000000,459.000000) scale(0.100000,-0.100000)"
fill="#000000" stroke="none">
<path d="M2089 4586 c-2 -2 -39 -7 -82 -11 -85 -7 -93 -8 -212 -30 -302 -56
-527 -159 -653 -301 -90 -101 -83 63 -80 -1934 2 -965 7 -1771 12 -1790 34
-156 170 -281 403 -373 81 -32 202 -68 274 -82 13 -3 47 -9 74 -15 125 -25
257 -35 480 -35 179 0 332 9 375 20 15 4 44 9 115 21 22 3 81 16 130 29 287
73 497 202 567 350 l28 60 -2 1815 -3 1815 -32 56 c-38 64 -121 146 -193 188
-116 67 -301 136 -445 165 -116 23 -115 23 -180 31 -33 4 -69 10 -80 12 -24 5
-491 14 -496 9z"/>
</g>
</svg>
